<mxfile host="65bd71144e">
    <diagram id="W0ads0QrqI9H7qQGa9br" name="Activity diagram UC001">
        <mxGraphModel dx="1836" dy="563" grid="1" gridSize="10" guides="1" tooltips="1" connect="1" arrows="1" fold="1" page="1" pageScale="1" pageWidth="850" pageHeight="1100" math="0" shadow="0">
            <root>
                <mxCell id="0"/>
                <mxCell id="1" parent="0"/>
                <mxCell id="2" value="&amp;nbsp; &amp;nbsp; &amp;nbsp; User&amp;nbsp; &amp;nbsp; &amp;nbsp; &amp;nbsp; &amp;nbsp; &amp;nbsp; &amp;nbsp; &amp;nbsp; &amp;nbsp; &amp;nbsp; &amp;nbsp; &amp;nbsp; &amp;nbsp; &amp;nbsp; &amp;nbsp; &amp;nbsp; &amp;nbsp; &amp;nbsp; &amp;nbsp; &amp;nbsp; &amp;nbsp; &amp;nbsp; &amp;nbsp; &amp;nbsp; &amp;nbsp; &amp;nbsp; &amp;nbsp; &amp;nbsp; &amp;nbsp; &amp;nbsp; &amp;nbsp; &amp;nbsp; &amp;nbsp; &amp;nbsp; &amp;nbsp; &amp;nbsp; &amp;nbsp; &amp;nbsp; &amp;nbsp; &amp;nbsp; &amp;nbsp; &amp;nbsp; &amp;nbsp; &amp;nbsp; &amp;nbsp; &amp;nbsp; &amp;nbsp; &amp;nbsp; &amp;nbsp; &amp;nbsp; &amp;nbsp; &amp;nbsp; &amp;nbsp; &amp;nbsp; &amp;nbsp; &amp;nbsp; &amp;nbsp; &amp;nbsp; &amp;nbsp; &amp;nbsp; &amp;nbsp; &amp;nbsp; &amp;nbsp; &amp;nbsp; &amp;nbsp;Minimart System" style="swimlane;whiteSpace=wrap;html=1;" parent="1" vertex="1">
                    <mxGeometry x="-100" y="40" width="1200" height="1690" as="geometry"/>
                </mxCell>
                <mxCell id="14" value="Enter email and password" style="rounded=1;whiteSpace=wrap;html=1;" parent="2" vertex="1">
                    <mxGeometry x="210" y="270" width="150" height="40" as="geometry"/>
                </mxCell>
                <mxCell id="16" value="Dispay login page" style="rounded=1;whiteSpace=wrap;html=1;" parent="2" vertex="1">
                    <mxGeometry x="850" y="170" width="120" height="40" as="geometry"/>
                </mxCell>
                <mxCell id="19" value="" style="rhombus;whiteSpace=wrap;html=1;" parent="2" vertex="1">
                    <mxGeometry x="268.75" y="120" width="32.5" height="40" as="geometry"/>
                </mxCell>
                <mxCell id="21" value="" style="ellipse;fillColor=strokeColor;" parent="2" vertex="1">
                    <mxGeometry x="270" y="50" width="30" height="30" as="geometry"/>
                </mxCell>
                <mxCell id="22" value="" style="endArrow=classic;html=1;exitX=0.5;exitY=1;exitDx=0;exitDy=0;entryX=0.5;entryY=0;entryDx=0;entryDy=0;" parent="2" source="21" target="19" edge="1">
                    <mxGeometry width="50" height="50" relative="1" as="geometry">
                        <mxPoint x="60" y="190" as="sourcePoint"/>
                        <mxPoint x="110" y="140" as="targetPoint"/>
                    </mxGeometry>
                </mxCell>
                <mxCell id="24" value="" style="edgeStyle=orthogonalEdgeStyle;endArrow=classic;html=1;rounded=0;endSize=8;startSize=8;exitX=1;exitY=0.5;exitDx=0;exitDy=0;entryX=0.5;entryY=0;entryDx=0;entryDy=0;" parent="2" source="19" target="16" edge="1">
                    <mxGeometry width="50" height="50" relative="1" as="geometry">
                        <mxPoint x="190" y="140" as="sourcePoint"/>
                        <mxPoint x="920" y="140" as="targetPoint"/>
                    </mxGeometry>
                </mxCell>
                <mxCell id="32" value="Login" style="edgeLabel;html=1;align=center;verticalAlign=middle;resizable=0;points=[];" parent="24" vertex="1" connectable="0">
                    <mxGeometry x="0.2561" y="2" relative="1" as="geometry">
                        <mxPoint as="offset"/>
                    </mxGeometry>
                </mxCell>
                <mxCell id="27" value="" style="edgeStyle=elbowEdgeStyle;elbow=vertical;endArrow=classic;html=1;curved=0;rounded=0;endSize=8;startSize=8;exitX=0.563;exitY=1.04;exitDx=0;exitDy=0;exitPerimeter=0;entryX=0.5;entryY=0;entryDx=0;entryDy=0;" parent="2" source="16" target="14" edge="1">
                    <mxGeometry width="50" height="50" relative="1" as="geometry">
                        <mxPoint x="280" y="280" as="sourcePoint"/>
                        <mxPoint x="150" y="226" as="targetPoint"/>
                        <Array as="points">
                            <mxPoint x="600" y="240"/>
                        </Array>
                    </mxGeometry>
                </mxCell>
                <mxCell id="31" value="" style="edgeStyle=elbowEdgeStyle;elbow=horizontal;endArrow=classic;html=1;curved=0;rounded=0;endSize=8;startSize=8;exitX=0;exitY=0.5;exitDx=0;exitDy=0;" parent="2" source="19" edge="1">
                    <mxGeometry width="50" height="50" relative="1" as="geometry">
                        <mxPoint x="60" y="400" as="sourcePoint"/>
                        <mxPoint x="840" y="340" as="targetPoint"/>
                        <Array as="points">
                            <mxPoint x="90" y="380"/>
                        </Array>
                    </mxGeometry>
                </mxCell>
                <mxCell id="33" value="Register" style="edgeLabel;html=1;align=center;verticalAlign=middle;resizable=0;points=[];" parent="31" vertex="1" connectable="0">
                    <mxGeometry x="0.4271" y="2" relative="1" as="geometry">
                        <mxPoint as="offset"/>
                    </mxGeometry>
                </mxCell>
                <mxCell id="34" value="Display register form" style="rounded=1;whiteSpace=wrap;html=1;" parent="2" vertex="1">
                    <mxGeometry x="840" y="320" width="140" height="40" as="geometry"/>
                </mxCell>
                <mxCell id="36" value="" style="edgeStyle=elbowEdgeStyle;elbow=vertical;endArrow=classic;html=1;curved=0;rounded=0;endSize=8;startSize=8;exitX=0.5;exitY=1;exitDx=0;exitDy=0;" parent="2" source="34" edge="1">
                    <mxGeometry width="50" height="50" relative="1" as="geometry">
                        <mxPoint x="910" y="480" as="sourcePoint"/>
                        <mxPoint x="280" y="480" as="targetPoint"/>
                        <Array as="points">
                            <mxPoint x="550" y="440"/>
                            <mxPoint x="950" y="455"/>
                        </Array>
                    </mxGeometry>
                </mxCell>
                <mxCell id="37" value="Enter user details" style="rounded=1;whiteSpace=wrap;html=1;" parent="2" vertex="1">
                    <mxGeometry x="210" y="480" width="140" height="40" as="geometry"/>
                </mxCell>
                <mxCell id="38" value="" style="endArrow=classic;html=1;exitX=1;exitY=0.5;exitDx=0;exitDy=0;entryX=0;entryY=0.5;entryDx=0;entryDy=0;" parent="2" source="37" target="39" edge="1">
                    <mxGeometry width="50" height="50" relative="1" as="geometry">
                        <mxPoint x="430" y="510" as="sourcePoint"/>
                        <mxPoint x="820" y="500" as="targetPoint"/>
                    </mxGeometry>
                </mxCell>
                <mxCell id="39" value="Validate details" style="rounded=1;whiteSpace=wrap;html=1;" parent="2" vertex="1">
                    <mxGeometry x="835" y="480" width="150" height="40" as="geometry"/>
                </mxCell>
                <mxCell id="40" value="" style="endArrow=classic;html=1;" parent="2" source="39" edge="1">
                    <mxGeometry width="50" height="50" relative="1" as="geometry">
                        <mxPoint x="910" y="540" as="sourcePoint"/>
                        <mxPoint x="910" y="580" as="targetPoint"/>
                    </mxGeometry>
                </mxCell>
                <mxCell id="41" value="" style="rhombus;whiteSpace=wrap;html=1;direction=south;" parent="2" vertex="1">
                    <mxGeometry x="895" y="580" width="30" height="40" as="geometry"/>
                </mxCell>
                <mxCell id="42" value="" style="endArrow=classic;html=1;exitX=0.5;exitY=0;exitDx=0;exitDy=0;" parent="2" source="41" edge="1">
                    <mxGeometry width="50" height="50" relative="1" as="geometry">
                        <mxPoint x="940" y="600" as="sourcePoint"/>
                        <mxPoint x="1030" y="600" as="targetPoint"/>
                    </mxGeometry>
                </mxCell>
                <mxCell id="43" value="False" style="edgeLabel;html=1;align=center;verticalAlign=middle;resizable=0;points=[];" parent="42" vertex="1" connectable="0">
                    <mxGeometry x="0.2695" y="4" relative="1" as="geometry">
                        <mxPoint as="offset"/>
                    </mxGeometry>
                </mxCell>
                <mxCell id="44" value="Display error" style="rounded=1;whiteSpace=wrap;html=1;" parent="2" vertex="1">
                    <mxGeometry x="1030" y="580" width="120" height="40" as="geometry"/>
                </mxCell>
                <mxCell id="45" value="" style="edgeStyle=elbowEdgeStyle;elbow=horizontal;endArrow=classic;html=1;curved=0;rounded=0;endSize=8;startSize=8;entryX=1;entryY=0.5;entryDx=0;entryDy=0;exitX=1;exitY=0.5;exitDx=0;exitDy=0;" parent="2" source="44" target="34" edge="1">
                    <mxGeometry width="50" height="50" relative="1" as="geometry">
                        <mxPoint x="1140" y="600" as="sourcePoint"/>
                        <mxPoint x="1190" y="550" as="targetPoint"/>
                        <Array as="points">
                            <mxPoint x="1170" y="470"/>
                        </Array>
                    </mxGeometry>
                </mxCell>
                <mxCell id="47" value="" style="endArrow=classic;html=1;exitX=1;exitY=0.5;exitDx=0;exitDy=0;" parent="2" source="41" edge="1">
                    <mxGeometry width="50" height="50" relative="1" as="geometry">
                        <mxPoint x="900" y="740" as="sourcePoint"/>
                        <mxPoint x="910" y="690" as="targetPoint"/>
                    </mxGeometry>
                </mxCell>
                <mxCell id="48" value="True" style="edgeLabel;html=1;align=center;verticalAlign=middle;resizable=0;points=[];" parent="47" vertex="1" connectable="0">
                    <mxGeometry x="0.2874" y="2" relative="1" as="geometry">
                        <mxPoint as="offset"/>
                    </mxGeometry>
                </mxCell>
                <mxCell id="49" value="Display login page" style="rounded=1;whiteSpace=wrap;html=1;" parent="2" vertex="1">
                    <mxGeometry x="845" y="690" width="140" height="40" as="geometry"/>
                </mxCell>
                <mxCell id="50" value="" style="edgeStyle=segmentEdgeStyle;endArrow=classic;html=1;curved=0;rounded=0;endSize=8;startSize=8;exitX=0;exitY=0.5;exitDx=0;exitDy=0;" parent="2" source="49" edge="1">
                    <mxGeometry width="50" height="50" relative="1" as="geometry">
                        <mxPoint x="840" y="710" as="sourcePoint"/>
                        <mxPoint x="280" y="760" as="targetPoint"/>
                    </mxGeometry>
                </mxCell>
                <mxCell id="51" value="Enter email and password" style="rounded=1;whiteSpace=wrap;html=1;" parent="2" vertex="1">
                    <mxGeometry x="205" y="760" width="150" height="40" as="geometry"/>
                </mxCell>
                <mxCell id="52" value="" style="edgeStyle=segmentEdgeStyle;endArrow=classic;html=1;curved=0;rounded=0;endSize=8;startSize=8;exitX=0.5;exitY=1;exitDx=0;exitDy=0;" parent="2" source="51" edge="1">
                    <mxGeometry width="50" height="50" relative="1" as="geometry">
                        <mxPoint x="320" y="940" as="sourcePoint"/>
                        <mxPoint x="840" y="890" as="targetPoint"/>
                        <Array as="points">
                            <mxPoint x="280" y="890"/>
                        </Array>
                    </mxGeometry>
                </mxCell>
                <mxCell id="53" value="Verify User" style="rounded=1;whiteSpace=wrap;html=1;" parent="2" vertex="1">
                    <mxGeometry x="840" y="870" width="140" height="40" as="geometry"/>
                </mxCell>
                <mxCell id="54" value="" style="endArrow=classic;html=1;exitX=0.5;exitY=1;exitDx=0;exitDy=0;" parent="2" source="53" edge="1">
                    <mxGeometry width="50" height="50" relative="1" as="geometry">
                        <mxPoint x="900" y="1020" as="sourcePoint"/>
                        <mxPoint x="910" y="970" as="targetPoint"/>
                    </mxGeometry>
                </mxCell>
                <mxCell id="55" value="" style="rhombus;whiteSpace=wrap;html=1;" parent="2" vertex="1">
                    <mxGeometry x="895" y="970" width="30" height="40" as="geometry"/>
                </mxCell>
                <mxCell id="56" value="" style="endArrow=classic;html=1;exitX=1;exitY=0.5;exitDx=0;exitDy=0;" parent="2" source="55" edge="1">
                    <mxGeometry width="50" height="50" relative="1" as="geometry">
                        <mxPoint x="970" y="1030" as="sourcePoint"/>
                        <mxPoint x="1020" y="990" as="targetPoint"/>
                    </mxGeometry>
                </mxCell>
                <mxCell id="57" value="True" style="edgeLabel;html=1;align=center;verticalAlign=middle;resizable=0;points=[];" parent="56" vertex="1" connectable="0">
                    <mxGeometry x="0.4625" y="-1" relative="1" as="geometry">
                        <mxPoint as="offset"/>
                    </mxGeometry>
                </mxCell>
                <mxCell id="58" value="Grant access to the system&amp;nbsp;" style="rounded=1;whiteSpace=wrap;html=1;" parent="2" vertex="1">
                    <mxGeometry x="1020" y="970" width="130" height="40" as="geometry"/>
                </mxCell>
                <mxCell id="59" value="Display error" style="rounded=1;whiteSpace=wrap;html=1;" parent="2" vertex="1">
                    <mxGeometry x="840" y="1070" width="140" height="40" as="geometry"/>
                </mxCell>
                <mxCell id="60" value="" style="endArrow=classic;html=1;exitX=0.5;exitY=1;exitDx=0;exitDy=0;" parent="2" edge="1">
                    <mxGeometry width="50" height="50" relative="1" as="geometry">
                        <mxPoint x="909.41" y="1010" as="sourcePoint"/>
                        <mxPoint x="909.41" y="1070" as="targetPoint"/>
                    </mxGeometry>
                </mxCell>
                <mxCell id="63" value="" style="edgeStyle=elbowEdgeStyle;elbow=horizontal;endArrow=classic;html=1;curved=0;rounded=0;endSize=8;startSize=8;entryX=0;entryY=0.5;entryDx=0;entryDy=0;exitX=0;exitY=0.5;exitDx=0;exitDy=0;" parent="2" source="59" target="51" edge="1">
                    <mxGeometry width="50" height="50" relative="1" as="geometry">
                        <mxPoint x="150" y="1080" as="sourcePoint"/>
                        <mxPoint x="200" y="780" as="targetPoint"/>
                        <Array as="points">
                            <mxPoint x="140" y="930"/>
                        </Array>
                    </mxGeometry>
                </mxCell>
                <mxCell id="64" value="" style="endArrow=classic;html=1;exitX=0.5;exitY=1;exitDx=0;exitDy=0;" parent="2" source="58" edge="1">
                    <mxGeometry width="50" height="50" relative="1" as="geometry">
                        <mxPoint x="1020" y="1250" as="sourcePoint"/>
                        <mxPoint x="1085" y="1200" as="targetPoint"/>
                    </mxGeometry>
                </mxCell>
                <mxCell id="65" value="" style="ellipse;html=1;shape=endState;fillColor=strokeColor;" parent="2" vertex="1">
                    <mxGeometry x="1070" y="1200" width="30" height="30" as="geometry"/>
                </mxCell>
                <mxCell id="67" value="" style="edgeStyle=elbowEdgeStyle;elbow=horizontal;endArrow=classic;html=1;curved=0;rounded=0;endSize=8;startSize=8;entryX=1;entryY=0.5;entryDx=0;entryDy=0;" parent="2" target="53" edge="1">
                    <mxGeometry width="50" height="50" relative="1" as="geometry">
                        <mxPoint x="1180" y="290" as="sourcePoint"/>
                        <mxPoint x="1080" y="850" as="targetPoint"/>
                        <Array as="points">
                            <mxPoint x="1180" y="670"/>
                        </Array>
                    </mxGeometry>
                </mxCell>
                <mxCell id="68" value="" style="line;strokeWidth=2;html=1;" parent="2" vertex="1">
                    <mxGeometry x="360" y="285" width="820" height="10" as="geometry"/>
                </mxCell>
                <mxCell id="5" value="" style="line;strokeWidth=2;direction=south;html=1;" parent="2" vertex="1">
                    <mxGeometry x="570" width="10" height="1690" as="geometry"/>
                </mxCell>
            </root>
        </mxGraphModel>
    </diagram>
    <diagram id="ggaGBXN5P9RfSuEwkSWy" name="Sequence diagram UC001">
        <mxGraphModel dx="1517" dy="866" grid="1" gridSize="10" guides="1" tooltips="1" connect="1" arrows="1" fold="1" page="1" pageScale="1" pageWidth="850" pageHeight="1100" math="0" shadow="0">
            <root>
                <mxCell id="0"/>
                <mxCell id="1" parent="0"/>
                <mxCell id="WIKnsYSfvEqS4FFtmhia-2" value="Customer" style="shape=umlLifeline;participant=umlActor;perimeter=lifelinePerimeter;whiteSpace=wrap;html=1;container=1;collapsible=0;recursiveResize=0;verticalAlign=top;spacingTop=36;outlineConnect=0;fontSize=10;size=40;" parent="1" vertex="1">
                    <mxGeometry x="110" y="120" width="20" height="860" as="geometry"/>
                </mxCell>
                <mxCell id="WIKnsYSfvEqS4FFtmhia-3" value="" style="html=1;points=[];perimeter=orthogonalPerimeter;fontSize=10;" parent="WIKnsYSfvEqS4FFtmhia-2" vertex="1">
                    <mxGeometry x="5" y="60" width="10" height="80" as="geometry"/>
                </mxCell>
                <mxCell id="WIKnsYSfvEqS4FFtmhia-4" value="Assistant" style="shape=umlLifeline;participant=umlActor;perimeter=lifelinePerimeter;whiteSpace=wrap;html=1;container=1;collapsible=0;recursiveResize=0;verticalAlign=top;spacingTop=36;outlineConnect=0;fontSize=10;" parent="1" vertex="1">
                    <mxGeometry x="190" y="120" width="20" height="860" as="geometry"/>
                </mxCell>
                <mxCell id="WIKnsYSfvEqS4FFtmhia-5" value="" style="html=1;points=[];perimeter=orthogonalPerimeter;fontSize=10;" parent="WIKnsYSfvEqS4FFtmhia-4" vertex="1">
                    <mxGeometry x="5" y="290" width="10" height="80" as="geometry"/>
                </mxCell>
                <mxCell id="WIKnsYSfvEqS4FFtmhia-6" value="Admistrator" style="shape=umlLifeline;participant=umlActor;perimeter=lifelinePerimeter;whiteSpace=wrap;html=1;container=1;collapsible=0;recursiveResize=0;verticalAlign=top;spacingTop=36;outlineConnect=0;fontSize=10;" parent="1" vertex="1">
                    <mxGeometry x="270" y="120" width="20" height="860" as="geometry"/>
                </mxCell>
                <mxCell id="WIKnsYSfvEqS4FFtmhia-7" value="" style="html=1;points=[];perimeter=orthogonalPerimeter;fontSize=10;" parent="WIKnsYSfvEqS4FFtmhia-6" vertex="1">
                    <mxGeometry x="5" y="540" width="10" height="80" as="geometry"/>
                </mxCell>
                <mxCell id="WIKnsYSfvEqS4FFtmhia-8" value="Login page" style="shape=umlLifeline;participant=umlBoundary;perimeter=lifelinePerimeter;whiteSpace=wrap;html=1;container=1;collapsible=0;recursiveResize=0;verticalAlign=top;spacingTop=36;outlineConnect=0;fontSize=10;" parent="1" vertex="1">
                    <mxGeometry x="410" y="120" width="50" height="860" as="geometry"/>
                </mxCell>
                <mxCell id="WIKnsYSfvEqS4FFtmhia-12" value="" style="html=1;points=[];perimeter=orthogonalPerimeter;fontSize=10;" parent="WIKnsYSfvEqS4FFtmhia-8" vertex="1">
                    <mxGeometry x="20" y="80" width="10" height="20" as="geometry"/>
                </mxCell>
                <mxCell id="WIKnsYSfvEqS4FFtmhia-26" value="" style="html=1;points=[];perimeter=orthogonalPerimeter;fontSize=6;" parent="WIKnsYSfvEqS4FFtmhia-8" vertex="1">
                    <mxGeometry x="20" y="110" width="10" height="140" as="geometry"/>
                </mxCell>
                <mxCell id="WIKnsYSfvEqS4FFtmhia-28" value="validate( email, password)" style="html=1;verticalAlign=bottom;endArrow=block;fontSize=6;entryX=-0.011;entryY=0.127;entryDx=0;entryDy=0;entryPerimeter=0;" parent="WIKnsYSfvEqS4FFtmhia-8" target="WIKnsYSfvEqS4FFtmhia-16" edge="1">
                    <mxGeometry width="80" relative="1" as="geometry">
                        <mxPoint x="30" y="180" as="sourcePoint"/>
                        <mxPoint x="110" y="180" as="targetPoint"/>
                    </mxGeometry>
                </mxCell>
                <mxCell id="WIKnsYSfvEqS4FFtmhia-29" value="displayErrror()" style="html=1;verticalAlign=bottom;endArrow=open;dashed=1;endSize=8;fontSize=6;" parent="WIKnsYSfvEqS4FFtmhia-8" source="WIKnsYSfvEqS4FFtmhia-9" edge="1">
                    <mxGeometry relative="1" as="geometry">
                        <mxPoint x="110" y="240" as="sourcePoint"/>
                        <mxPoint x="30" y="240" as="targetPoint"/>
                    </mxGeometry>
                </mxCell>
                <mxCell id="WIKnsYSfvEqS4FFtmhia-37" value="" style="html=1;points=[];perimeter=orthogonalPerimeter;fontSize=12;" parent="WIKnsYSfvEqS4FFtmhia-8" vertex="1">
                    <mxGeometry x="20" y="300" width="10" height="20" as="geometry"/>
                </mxCell>
                <mxCell id="WIKnsYSfvEqS4FFtmhia-38" value="&lt;font style=&quot;font-size: 6px;&quot;&gt;login(email, password)&lt;/font&gt;" style="html=1;verticalAlign=bottom;endArrow=block;fontSize=10;" parent="WIKnsYSfvEqS4FFtmhia-8" edge="1">
                    <mxGeometry width="80" relative="1" as="geometry">
                        <mxPoint x="-50" y="310" as="sourcePoint"/>
                        <mxPoint x="20" y="310" as="targetPoint"/>
                    </mxGeometry>
                </mxCell>
                <mxCell id="WIKnsYSfvEqS4FFtmhia-39" value="" style="html=1;points=[];perimeter=orthogonalPerimeter;fontSize=12;" parent="WIKnsYSfvEqS4FFtmhia-8" vertex="1">
                    <mxGeometry x="20" y="340" width="10" height="120" as="geometry"/>
                </mxCell>
                <mxCell id="WIKnsYSfvEqS4FFtmhia-49" value="" style="html=1;points=[];perimeter=orthogonalPerimeter;fontSize=12;" parent="WIKnsYSfvEqS4FFtmhia-8" vertex="1">
                    <mxGeometry x="20" y="560" width="10" height="20" as="geometry"/>
                </mxCell>
                <mxCell id="WIKnsYSfvEqS4FFtmhia-51" value="" style="html=1;points=[];perimeter=orthogonalPerimeter;fontSize=12;" parent="WIKnsYSfvEqS4FFtmhia-8" vertex="1">
                    <mxGeometry x="20" y="600" width="10" height="80" as="geometry"/>
                </mxCell>
                <mxCell id="WIKnsYSfvEqS4FFtmhia-52" value="&lt;font style=&quot;font-size: 6px;&quot;&gt;login(email, password)&lt;/font&gt;" style="html=1;verticalAlign=bottom;endArrow=block;fontSize=10;exitX=1.023;exitY=0.878;exitDx=0;exitDy=0;exitPerimeter=0;" parent="WIKnsYSfvEqS4FFtmhia-8" source="WIKnsYSfvEqS4FFtmhia-7" edge="1">
                    <mxGeometry width="80" relative="1" as="geometry">
                        <mxPoint x="-120" y="610" as="sourcePoint"/>
                        <mxPoint x="20" y="610" as="targetPoint"/>
                        <Array as="points">
                            <mxPoint x="-57.42999999999995" y="610"/>
                        </Array>
                    </mxGeometry>
                </mxCell>
                <mxCell id="WIKnsYSfvEqS4FFtmhia-9" value="Login validation" style="shape=umlLifeline;participant=umlControl;perimeter=lifelinePerimeter;whiteSpace=wrap;html=1;container=1;collapsible=0;recursiveResize=0;verticalAlign=top;spacingTop=36;outlineConnect=0;fontSize=10;" parent="1" vertex="1">
                    <mxGeometry x="580" y="120" width="40" height="860" as="geometry"/>
                </mxCell>
                <mxCell id="WIKnsYSfvEqS4FFtmhia-16" value="" style="html=1;points=[];perimeter=orthogonalPerimeter;fontSize=10;" parent="WIKnsYSfvEqS4FFtmhia-9" vertex="1">
                    <mxGeometry x="15" y="170" width="10" height="80" as="geometry"/>
                </mxCell>
                <mxCell id="WIKnsYSfvEqS4FFtmhia-10" value="KTDI Minimart System" style="shape=umlLifeline;perimeter=lifelinePerimeter;whiteSpace=wrap;html=1;container=1;collapsible=0;recursiveResize=0;outlineConnect=0;fontSize=10;" parent="1" vertex="1">
                    <mxGeometry x="750" y="120" width="100" height="860" as="geometry"/>
                </mxCell>
                <mxCell id="WIKnsYSfvEqS4FFtmhia-32" value="" style="html=1;points=[];perimeter=orthogonalPerimeter;fontSize=12;" parent="WIKnsYSfvEqS4FFtmhia-10" vertex="1">
                    <mxGeometry x="45" y="60" width="10" height="770" as="geometry"/>
                </mxCell>
                <mxCell id="WIKnsYSfvEqS4FFtmhia-14" value="&lt;font style=&quot;font-size: 6px;&quot;&gt;register(email, password)&lt;/font&gt;" style="html=1;verticalAlign=bottom;endArrow=block;fontSize=10;exitX=1;exitY=0.247;exitDx=0;exitDy=0;exitPerimeter=0;entryX=-0.048;entryY=0.244;entryDx=0;entryDy=0;entryPerimeter=0;" parent="1" source="WIKnsYSfvEqS4FFtmhia-3" target="WIKnsYSfvEqS4FFtmhia-23" edge="1">
                    <mxGeometry width="80" relative="1" as="geometry">
                        <mxPoint x="130" y="200" as="sourcePoint"/>
                        <mxPoint x="340" y="200" as="targetPoint"/>
                    </mxGeometry>
                </mxCell>
                <mxCell id="WIKnsYSfvEqS4FFtmhia-22" value="Register page" style="shape=umlLifeline;participant=umlBoundary;perimeter=lifelinePerimeter;whiteSpace=wrap;html=1;container=1;collapsible=0;recursiveResize=0;verticalAlign=top;spacingTop=36;outlineConnect=0;fontSize=10;" parent="1" vertex="1">
                    <mxGeometry x="330" y="120" width="50" height="860" as="geometry"/>
                </mxCell>
                <mxCell id="WIKnsYSfvEqS4FFtmhia-23" value="" style="html=1;points=[];perimeter=orthogonalPerimeter;fontSize=10;" parent="WIKnsYSfvEqS4FFtmhia-22" vertex="1">
                    <mxGeometry x="20" y="70" width="10" height="40" as="geometry"/>
                </mxCell>
                <mxCell id="WIKnsYSfvEqS4FFtmhia-25" value="&lt;font style=&quot;font-size: 6px;&quot;&gt;login(email, password)&lt;/font&gt;" style="html=1;verticalAlign=bottom;endArrow=block;fontSize=10;" parent="WIKnsYSfvEqS4FFtmhia-22" edge="1">
                    <mxGeometry width="80" relative="1" as="geometry">
                        <mxPoint x="30" y="90" as="sourcePoint"/>
                        <mxPoint x="100" y="90" as="targetPoint"/>
                    </mxGeometry>
                </mxCell>
                <mxCell id="WIKnsYSfvEqS4FFtmhia-35" value="" style="html=1;points=[];perimeter=orthogonalPerimeter;fontSize=12;" parent="WIKnsYSfvEqS4FFtmhia-22" vertex="1">
                    <mxGeometry x="20" y="290" width="10" height="50" as="geometry"/>
                </mxCell>
                <mxCell id="WIKnsYSfvEqS4FFtmhia-46" value="" style="html=1;points=[];perimeter=orthogonalPerimeter;fontSize=12;" parent="WIKnsYSfvEqS4FFtmhia-22" vertex="1">
                    <mxGeometry x="20" y="540" width="10" height="40" as="geometry"/>
                </mxCell>
                <mxCell id="WIKnsYSfvEqS4FFtmhia-50" value="&lt;font style=&quot;font-size: 6px;&quot;&gt;login(email, password)&lt;/font&gt;" style="html=1;verticalAlign=bottom;endArrow=block;fontSize=10;entryX=-0.077;entryY=0.506;entryDx=0;entryDy=0;entryPerimeter=0;" parent="WIKnsYSfvEqS4FFtmhia-22" target="WIKnsYSfvEqS4FFtmhia-49" edge="1">
                    <mxGeometry width="80" relative="1" as="geometry">
                        <mxPoint x="30" y="570" as="sourcePoint"/>
                        <mxPoint x="95" y="570" as="targetPoint"/>
                    </mxGeometry>
                </mxCell>
                <mxCell id="WIKnsYSfvEqS4FFtmhia-27" value="&lt;font style=&quot;font-size: 6px;&quot;&gt;login(email, password)&lt;/font&gt;" style="html=1;verticalAlign=bottom;endArrow=block;fontSize=10;exitX=0.992;exitY=0.75;exitDx=0;exitDy=0;exitPerimeter=0;entryX=-0.087;entryY=0.077;entryDx=0;entryDy=0;entryPerimeter=0;" parent="1" source="WIKnsYSfvEqS4FFtmhia-3" target="WIKnsYSfvEqS4FFtmhia-26" edge="1">
                    <mxGeometry width="80" relative="1" as="geometry">
                        <mxPoint x="130.03488372093022" y="240" as="sourcePoint"/>
                        <mxPoint x="420" y="240" as="targetPoint"/>
                        <Array as="points">
                            <mxPoint x="200" y="240"/>
                        </Array>
                    </mxGeometry>
                </mxCell>
                <mxCell id="WIKnsYSfvEqS4FFtmhia-33" value="validDetails()" style="html=1;verticalAlign=bottom;endArrow=block;fontSize=12;exitX=1.011;exitY=0.374;exitDx=0;exitDy=0;exitPerimeter=0;entryX=-0.056;entryY=0.181;entryDx=0;entryDy=0;entryPerimeter=0;" parent="1" source="WIKnsYSfvEqS4FFtmhia-16" target="WIKnsYSfvEqS4FFtmhia-32" edge="1">
                    <mxGeometry x="-0.001" width="80" relative="1" as="geometry">
                        <mxPoint x="610" y="320" as="sourcePoint"/>
                        <mxPoint x="790" y="320" as="targetPoint"/>
                        <mxPoint as="offset"/>
                    </mxGeometry>
                </mxCell>
                <mxCell id="WIKnsYSfvEqS4FFtmhia-36" value="&lt;font style=&quot;font-size: 6px;&quot;&gt;register(email, password)&lt;/font&gt;" style="html=1;verticalAlign=bottom;endArrow=block;fontSize=10;exitX=0.94;exitY=0.134;exitDx=0;exitDy=0;exitPerimeter=0;" parent="1" source="WIKnsYSfvEqS4FFtmhia-5" target="WIKnsYSfvEqS4FFtmhia-35" edge="1">
                    <mxGeometry width="80" relative="1" as="geometry">
                        <mxPoint x="210" y="420" as="sourcePoint"/>
                        <mxPoint x="425" y="420.24" as="targetPoint"/>
                    </mxGeometry>
                </mxCell>
                <mxCell id="WIKnsYSfvEqS4FFtmhia-40" value="&lt;font style=&quot;font-size: 6px;&quot;&gt;login(email, password)&lt;/font&gt;" style="html=1;verticalAlign=bottom;endArrow=block;fontSize=10;exitX=1.04;exitY=0.877;exitDx=0;exitDy=0;exitPerimeter=0;" parent="1" source="WIKnsYSfvEqS4FFtmhia-5" edge="1">
                    <mxGeometry width="80" relative="1" as="geometry">
                        <mxPoint x="210" y="480" as="sourcePoint"/>
                        <mxPoint x="430" y="480" as="targetPoint"/>
                        <Array as="points">
                            <mxPoint x="277.97" y="480"/>
                        </Array>
                    </mxGeometry>
                </mxCell>
                <mxCell id="WIKnsYSfvEqS4FFtmhia-43" value="validate( email, password)" style="html=1;verticalAlign=bottom;endArrow=block;fontSize=6;" parent="1" edge="1">
                    <mxGeometry width="80" relative="1" as="geometry">
                        <mxPoint x="440" y="500" as="sourcePoint"/>
                        <mxPoint x="600" y="500" as="targetPoint"/>
                    </mxGeometry>
                </mxCell>
                <mxCell id="WIKnsYSfvEqS4FFtmhia-44" value="displayErrror()" style="html=1;verticalAlign=bottom;endArrow=open;dashed=1;endSize=8;fontSize=6;" parent="1" edge="1">
                    <mxGeometry relative="1" as="geometry">
                        <mxPoint x="599.4999999999998" y="570" as="sourcePoint"/>
                        <mxPoint x="440" y="570" as="targetPoint"/>
                    </mxGeometry>
                </mxCell>
                <mxCell id="WIKnsYSfvEqS4FFtmhia-45" value="validDetails()" style="html=1;verticalAlign=bottom;endArrow=block;fontSize=12;exitX=1.011;exitY=0.374;exitDx=0;exitDy=0;exitPerimeter=0;entryX=0.023;entryY=0.434;entryDx=0;entryDy=0;entryPerimeter=0;" parent="1" target="WIKnsYSfvEqS4FFtmhia-32" edge="1">
                    <mxGeometry x="-0.001" width="80" relative="1" as="geometry">
                        <mxPoint x="599.9999999999999" y="514.5799999999999" as="sourcePoint"/>
                        <mxPoint x="789.87" y="514.66" as="targetPoint"/>
                        <mxPoint as="offset"/>
                    </mxGeometry>
                </mxCell>
                <mxCell id="WIKnsYSfvEqS4FFtmhia-47" value="&lt;font style=&quot;font-size: 6px;&quot;&gt;register(email, password)&lt;/font&gt;" style="html=1;verticalAlign=bottom;endArrow=block;fontSize=10;exitX=1.04;exitY=0.129;exitDx=0;exitDy=0;exitPerimeter=0;" parent="1" source="WIKnsYSfvEqS4FFtmhia-7" edge="1">
                    <mxGeometry width="80" relative="1" as="geometry">
                        <mxPoint x="290" y="670" as="sourcePoint"/>
                        <mxPoint x="350" y="670" as="targetPoint"/>
                    </mxGeometry>
                </mxCell>
                <mxCell id="WIKnsYSfvEqS4FFtmhia-53" value="validate( email, password)" style="html=1;verticalAlign=bottom;endArrow=block;fontSize=6;" parent="1" edge="1">
                    <mxGeometry width="80" relative="1" as="geometry">
                        <mxPoint x="440" y="740" as="sourcePoint"/>
                        <mxPoint x="600" y="740" as="targetPoint"/>
                    </mxGeometry>
                </mxCell>
                <mxCell id="WIKnsYSfvEqS4FFtmhia-54" value="displayErrror()" style="html=1;verticalAlign=bottom;endArrow=open;dashed=1;endSize=8;fontSize=6;" parent="1" edge="1">
                    <mxGeometry relative="1" as="geometry">
                        <mxPoint x="599.4999999999998" y="790" as="sourcePoint"/>
                        <mxPoint x="440" y="790" as="targetPoint"/>
                    </mxGeometry>
                </mxCell>
                <mxCell id="WIKnsYSfvEqS4FFtmhia-55" value="validDetails()" style="html=1;verticalAlign=bottom;endArrow=block;fontSize=12;exitX=1.011;exitY=0.374;exitDx=0;exitDy=0;exitPerimeter=0;entryX=0.167;entryY=0.419;entryDx=0;entryDy=0;entryPerimeter=0;" parent="1" edge="1">
                    <mxGeometry x="-0.001" width="80" relative="1" as="geometry">
                        <mxPoint x="600" y="749.9999999999999" as="sourcePoint"/>
                        <mxPoint x="796.6699999999998" y="750.62" as="targetPoint"/>
                        <mxPoint as="offset"/>
                    </mxGeometry>
                </mxCell>
                <mxCell id="WIKnsYSfvEqS4FFtmhia-62" value="alt" style="shape=umlFrame;whiteSpace=wrap;html=1;fontSize=12;" parent="1" vertex="1">
                    <mxGeometry x="420" y="760" width="200" height="70" as="geometry"/>
                </mxCell>
                <mxCell id="WIKnsYSfvEqS4FFtmhia-63" value="alt" style="shape=umlFrame;whiteSpace=wrap;html=1;fontSize=12;" parent="1" vertex="1">
                    <mxGeometry x="420" y="530" width="200" height="70" as="geometry"/>
                </mxCell>
                <mxCell id="WIKnsYSfvEqS4FFtmhia-64" value="alt" style="shape=umlFrame;whiteSpace=wrap;html=1;fontSize=12;" parent="1" vertex="1">
                    <mxGeometry x="420" y="330" width="200" height="60" as="geometry"/>
                </mxCell>
                <mxCell id="rLiGQMn8_u9l5l2ZoRxR-3" value="UC001" style="shape=umlFrame;whiteSpace=wrap;html=1;width=120;height=30;boundedLbl=1;verticalAlign=middle;align=left;spacingLeft=5;fontSize=12;movable=1;resizable=1;rotatable=1;deletable=1;editable=1;connectable=1;" vertex="1" parent="1">
                    <mxGeometry x="50" y="70" width="920" height="1000" as="geometry"/>
                </mxCell>
            </root>
        </mxGraphModel>
    </diagram>
</mxfile>